<?xml version="1.0" encoding="UTF-8" standalone="no"?>
<svg
   xmlns:dc="http://purl.org/dc/elements/1.1/"
   xmlns:cc="http://creativecommons.org/ns#"
   xmlns:rdf="http://www.w3.org/1999/02/22-rdf-syntax-ns#"
   xmlns:svg="http://www.w3.org/2000/svg"
   xmlns="http://www.w3.org/2000/svg"
   width="0.7em"
   height="0.7em"
   viewBox="0 0 27.336752 22.254635"
   version="1.1"
   id="svg3963">
  <defs
     id="defs3957">
    <style
       id="style4672">.cls-1,.cls-2{fill:#312783;}.cls-1{fill-rule:evenodd;}</style>
  </defs>
  <metadata
     id="metadata3960">
    <rdf:RDF>
      <cc:Work
         rdf:about="">
        <dc:format>image/svg+xml</dc:format>
        <dc:type
           rdf:resource="http://purl.org/dc/dcmitype/StillImage" />
        <dc:title></dc:title>
      </cc:Work>
    </rdf:RDF>
  </metadata>
  <g
     id="layer1"
     transform="translate(-72.386379,-118.71464)">
    <g
       id="Capa_1"
       data-name="Capa 1"
       transform="matrix(0.26458334,0,0,0.26458334,48.495478,133.20351)">
      <path
         class="cls-1"
         d="m 141.95632,-30.761069 c 13.9,0 25.17,11 25.17,24.5600005 a 24.3,24.3 0 0 1 -9.5,19.2199995 c 11.29,5.74 18.75,6.23 21.18,-0.17 a 4.66,4.66 0 0 0 -6.06,-6.5199995 2.86,2.86 0 1 1 -1.18,-0.09 c 3.09,-3.17 12.4,-0.89 10.86,7.8099995 -2.6,11.39 -18.65,7.33 -26,3.15 q -1.36,-0.88 -2.7,-1.64 a 25.55,25.55 0 0 1 -11.73,2.83 c -13.9,0 -25.17,-10.9999995 -25.17,-24.5599995 0,-13.5600005 11.23,-24.5900005 25.13,-24.5900005 z m -34.16,53.81 h 69.5 a 3.16,3.16 0 0 1 3.14,3.19 v 0 a 3.06,3.06 0 0 1 -3.14,3.11 323.89,323.89 0 0 0 -69.49,0 3.05,3.05 0 0 1 -3.16,-3.11 v 0 a 3.16,3.16 0 0 1 3.15,-3.15 z m 76.92,-15.9999995 a 9.56,9.56 0 0 0 -17.35,-1.16 c 3,-12 9.16,-17.1200005 16.08,-6.94 -4.09,-14.8900005 1.67,-21.3600005 10.17,-27.7100005 -3.62,12 -6.51,23.8600005 -8.9,35.7800005 z m -42.76,-61.8100005 c -3.74,2.62 -5,6.23 -2.3,11.19 -5.85,-3.93 -10.16,1.74 -7.49,8.55 1.85,-5.22 8.06,-7.48 8.25,0.47 h -1.64 v 1.17 a 11.46,11.46 0 0 1 6.36,0 v -1.17 h -1.64 c 0.19,-7.94 6.4,-5.69 8.25,-0.47 2.67,-6.82 -1.64,-12.48 -7.49,-8.55 2.65,-5 1.44,-8.57 -2.3,-11.19 z M 99.206315,7.0189315 a 9.56,9.56 0 0 1 17.350005,-1.16 c -3,-12 -9.16,-17.1200005 -16.08,-6.94 4.08,-14.8600005 -1.680005,-21.3300005 -10.180005,-27.6800005 3.62,12 6.52,23.8600005 8.91,35.7800005 z m 13.610005,-0.91 a 2.86,2.86 0 1 1 -1.66,-0.17 l -0.33,-0.17 c -4.51,-1.3 -7.39,1.41 -6,7.1199995 2.71,7.19 11,4.64 18.34,0.7 a 16.41,16.41 0 0 0 3.78,3.65 c -8.06,3.73 -20,7.33 -24.64,-1.17 -4.300005,-7.8999995 5.63,-15.1899995 10.51,-9.9399995 z m 37.75,7.8299995 c -6.88,-3.27 -13.42,-4.1199995 -19.5,-1.78 a 16.12,16.12 0 0 0 10.9,4.42 15.6,15.6 0 0 0 8.6,-2.64 z m -20.68,-2.95 c 5.78,-4.5699995 14.14,-3.5499995 23.83,0.32 a 25.1,25.1 0 0 0 6.63,-17.4699995 c 0,-12.5500005 -8.24,-22.7300005 -18.39,-22.7300005 -10.15,0 -18.39,10.13 -18.39,22.7300005 a 25.22,25.22 0 0 0 6.32,17.1499995 z"
         id="path4678"
         style="fill:var(--text-colour);fill-opacity:1" />
    </g>
  </g>
</svg>
