<?xml version="1.0" encoding="UTF-8" standalone="no"?>
<svg
   xmlns:dc="http://purl.org/dc/elements/1.1/"
   xmlns:cc="http://creativecommons.org/ns#"
   xmlns:rdf="http://www.w3.org/1999/02/22-rdf-syntax-ns#"
   xmlns:svg="http://www.w3.org/2000/svg"
   xmlns="http://www.w3.org/2000/svg"
   height="0.7em"
   width="0.7em"
   viewBox="0 0 26.87373 27.651604"
   version="1.1"
   id="svg6372">
  <defs
     id="defs6366" />
  <metadata
     id="metadata6369">
    <rdf:RDF>
      <cc:Work
         rdf:about="">
        <dc:format>image/svg+xml</dc:format>
        <dc:type
           rdf:resource="http://purl.org/dc/dcmitype/StillImage" />
        <dc:title></dc:title>
      </cc:Work>
    </rdf:RDF>
  </metadata>
  <g
     id="layer1"
     transform="translate(101.91026,-9.4432609)">
    <g
       id="g7905"
       transform="matrix(0.26458333,0,0,0.26458333,-110.63622,3.8499693)">
      <g
         id="g7862">
        <g
           id="g7860">
          <path
             class="st0"
             d="m 112.42,114.05 c 0,0 -26.02,-56.1 -26.29,-56.84 1.02,-2.7 1.77,-3.78 1.86,-3.97 1.31,-2.58 3.59,-4.19 6.66,-4.19 3,0 5.6,1.68 6.95,4.15 l -0.88,-1.32 c 0.01,0.03 0.87,1.29 0.88,1.31 0.13,0.24 24.18,50.42 24.18,50.42 0.06,0.12 -0.96,-2.01 -0.9,-1.89 5.33,11.2 9.44,19.84 9.46,19.87 0.13,0.33 0.21,0.69 0.21,1.06 0,1.53 -1.19,2.78 -2.68,2.87 -0.06,0 -0.12,0.02 -0.19,0.02 -0.06,0 -0.12,-0.02 -0.19,-0.02 -5.46,0 -13.68,0 -13.68,0 h -0.06 v 0 l -9.51,-0.04 c 4.27,-2.16 4.63,-6.67 4.65,-8.57 0.01,-1.01 -0.18,-1.97 -0.49,-2.86 z"
             id="path7852" />
          <path
             class="st0"
             d="m 82.72,55.47 c 0.01,-0.02 0.03,-0.05 0.04,-0.08 -0.02,0.02 -0.03,0.05 -0.04,0.08 z"
             id="path7854" />
          <path
             class="st0"
             d="m 84.2,53.78 c -0.02,0.03 -0.03,0.06 -0.04,0.08 0.01,-0.02 0.03,-0.05 0.04,-0.08 z m 0.03,-0.06 -24.16,51.89 -5.61,-0.05 c -1.91,-0.11 -3.05,-0.58 -3.65,-0.87 C 47.6,103.13 46.38,98.3 47.54,94.36 60.96,66.62 79.93,26.47 80.05,26.23 c 0.15,-0.32 0.31,-0.64 0.46,-0.96 0.13,-0.28 0.27,-0.55 0.4,-0.83 0.11,-0.23 0.22,-0.46 0.33,-0.69 0.09,-0.18 0.18,-0.37 0.27,-0.55 0.02,-0.05 0.05,-0.1 0.07,-0.15 0.04,-0.09 0.08,-0.17 0.13,-0.26 0.02,-0.05 0.05,-0.1 0.07,-0.15 0.23,-0.49 0.59,-0.86 1.06,-1.13 0.44,-0.25 0.94,-0.37 1.44,-0.37 1.11,0 2.05,0.63 2.53,1.55 l 11.68,24.37 c -2.08,-1.12 -2.77,-1.28 -5.77,-1.28 -3.07,0 -5.41,1.81 -6.72,4.37 -0.1,0.19 -1,1.98 -1.65,3.32 -0.02,0.05 -0.05,0.1 -0.07,0.15 l -0.01,0.01 c 0,0 0,0 0,0.01 -0.01,0.03 -0.03,0.05 -0.04,0.08 z"
             id="path7856" />
          <path
             class="st0"
             d="m 57.75,108.54 v 0 h 2.84 17.58 28.14 l 2.64,5.63 -0.01,0.02 c 0.31,0.89 0.49,1.84 0.49,2.84 0,4.73 -3.74,8.6 -8.47,8.6 H 80.15 62.59 49.73 49.72 v 0 c 0,0 -8.22,0 -13.68,0 -0.06,0 -0.12,0.02 -0.19,0.02 -0.06,0 -0.12,-0.01 -0.19,-0.02 -1.48,-0.1 -2.66,-1.31 -2.68,-2.81 0.01,-0.25 0.04,-0.5 0.09,-0.75 0.03,-0.12 0.07,-0.23 0.11,-0.35 0.01,-0.03 5,-10.34 11.66,-24.11 -1.15,3.94 0.67,8.25 4.49,10.1 0.9,0.43 1.83,0.69 2.77,0.8 l 0.45,0.05 c 0.24,0.01 0.47,0.01 0.71,0.01 z"
             id="path7858" />
        </g>
      </g>
    </g>
  </g>
  <style
     type="text/css"
     id="style7850">
	.st0{fill:var(--text-colour);}
</style>
</svg>
